# xmcd
#
# Track frame offsets: 
#        150
#        18259
#        49307
#        79902
#        118539
#        156877
#        175237
#        204884
#        233537
#
# Disc length: 3583 seconds
#
# Revision: 0
# Processed by: cddbd v1.5.2PL0 Copyright (c) Steve Scherf et al.
# Submitted via: ExactAudioCopy v1.3
#
DISCID=660dfd09
DTITLE=Lefty Dizz - Ain't It Nice To Be Loved
DYEAR=1995
DGENRE=Chicago Blues
TTITLE0=Cloudy Weather
TTITLE1=That's Alright In The Dark
TTITLE2=I Feel Like Jumping
TTITLE3=Bad Avenue
TTITLE4=Ain't It Nice To Be Loved
TTITLE5=Look On Yonders Wall
TTITLE6=Too Late
TTITLE7=Sadie
TTITLE8=Where The Hell Were You When I Got Home?!
EXTD=
EXTT0=
EXTT1=
EXTT2=
EXTT3=
EXTT4=
EXTT5=
EXTT6=
EXTT7=
EXTT8=
PLAYORDER=
